<?xml version="1.0" encoding="UTF-8" standalone="no"?>
<svg
   xmlns:dc="http://purl.org/dc/elements/1.1/"
   xmlns:cc="http://creativecommons.org/ns#"
   xmlns:rdf="http://www.w3.org/1999/02/22-rdf-syntax-ns#"
   xmlns:svg="http://www.w3.org/2000/svg"
   xmlns="http://www.w3.org/2000/svg"
   xmlns:sodipodi="http://sodipodi.sourceforge.net/DTD/sodipodi-0.dtd"
   xmlns:inkscape="http://www.inkscape.org/namespaces/inkscape"
   width="70mm"
   height="70mm"
   viewBox="0 0 70 70"
   version="1.1"
   id="svg26"
   inkscape:version="1.0 (4035a4fb49, 2020-05-01)"
   sodipodi:docname="Logo - white.svg">
  <defs
     id="defs20" />
  <sodipodi:namedview
     id="base"
     pagecolor="#ffffff"
     bordercolor="#666666"
     borderopacity="1.0"
     inkscape:pageopacity="0.0"
     inkscape:pageshadow="2"
     inkscape:zoom="1.979899"
     inkscape:cx="110.52863"
     inkscape:cy="102.69226"
     inkscape:document-units="mm"
     inkscape:current-layer="layer1"
     inkscape:document-rotation="0"
     showgrid="false"
     inkscape:window-width="1424"
     inkscape:window-height="1030"
     inkscape:window-x="192"
     inkscape:window-y="0"
     inkscape:window-maximized="0" />
  <metadata
     id="metadata23">
    <rdf:RDF>
      <cc:Work
         rdf:about="">
        <dc:format>image/svg+xml</dc:format>
        <dc:type
           rdf:resource="http://purl.org/dc/dcmitype/StillImage" />
        <dc:title />
      </cc:Work>
    </rdf:RDF>
  </metadata>
  <g
     inkscape:label="Layer 1"
     inkscape:groupmode="layer"
     id="layer1">
    <path
       style="fill:#ffffff;stroke-width:0.211667"
       d="m 30.394664,65.644197 c -1.105963,-0.0883 -2.439463,-0.27018 -2.963338,-0.40414 -0.523875,-0.13396 -1.61925,-0.37494 -2.434166,-0.53552 -0.814917,-0.16058 -1.957917,-0.48428 -2.54,-0.71934 l -1.058334,-0.42737 0.767138,-0.01 c 0.421925,-0.005 1.183925,0.13879 1.693333,0.32052 2.239067,0.7988 5.368307,1.18687 9.498697,1.17796 3.27832,-0.007 6.985,-0.39386 6.985,-0.72887 0,-0.12198 -0.44511,-0.14788 -1.11125,-0.0647 -2.90238,0.36252 -7.29707,0.39427 -9.78958,0.0707 -1.397004,-0.18134 -2.682879,-0.32544 -2.857504,-0.32022 -0.667982,0.02 -5.196159,-1.13354 -5.399179,-1.37537 -0.117341,-0.13978 -0.641216,-0.4548 -1.164166,-0.70005 -2.891964,-1.35627 -3.503189,-1.71704 -4.507093,-2.66027 -0.605218,-0.56865 -1.784816,-1.36814 -2.621331,-1.77665 -1.121292,-0.54758 -1.538428,-0.86573 -1.5875,-1.21079 -0.03661,-0.25742 -0.185626,-0.47995 -0.331147,-0.4945 -0.145521,-0.0146 -0.410447,-0.0384 -0.588726,-0.0529 -0.178279,-0.0146 -0.3863192,-0.19314 -0.4623112,-0.39687 -0.07599,-0.20373 -0.311128,-0.49488 -0.522524,-0.647 -0.211395,-0.15212 -0.384355,-0.38037 -0.384355,-0.50722 0,-0.12684 -0.42822,-0.68843 -0.951599,-1.24796 -1.117428,-1.19463 -2.513787,-4.04822 -3.7252261,-7.61287 -1.080416,-3.17911 -1.426678,-5.05972 -1.586282,-8.61534 -0.1103279,-2.45786 -0.07912,-2.97206 0.202084,-3.33003 0.31979,-0.40708 0.332906,-0.39489 0.341582,0.3175 0.005,0.40746 0.149203,1.21709 0.320535,1.79917 0.275421,0.93572 0.275156,1.01073 -0.0023,0.64746 -0.307389,-0.40247 -0.313804,-0.40157 -0.313804,0.0443 0,0.25033 0.106829,1.17341 0.237397,2.05129 0.265196,1.78305 0.746888,2.26024 0.542892,0.53781 -0.08602,-0.7263 -0.04938,-1.05833 0.116806,-1.05833 0.133182,0 0.06658,-0.12838 -0.148013,-0.28529 -0.37748,-0.27603 -0.376463,-0.299 0.03126,-0.70672 0.568628,-0.56863 0.8825391,-4.18483 0.380012,-4.37767 -0.172529,-0.0662 -0.313689,-0.25829 -0.313689,-0.42686 0,-0.16857 -0.258379,-0.4947 -0.574175,-0.72474 -0.559643,-0.40768 -0.572539,-0.4656 -0.509531,-2.28864 0.03581,-1.03614 0.193347,-2.11926 0.353198,-2.42838 0.158705,-0.3069 0.33698,-0.82506 0.396168,-1.15146 0.117614,-0.6486 0.474916,-0.97608 0.9693401,-0.88842 0.236563,0.0419 0.3175,0.35077 0.3175,1.21149 0,0.8834 0.07867,1.17092 0.334344,1.22202 0.228404,0.0456 0.410572,-0.18761 0.574918,-0.73615 0.669522,-2.23466 3.166394,-6.57774 5.1763432,-9.00377 0.810847,-0.9787 0.855646,-1.28009 0.105645,-0.71076 -0.203729,0.15465 -0.370416,0.43088 -0.370416,0.61385 0,0.18297 -0.285523,0.53598 -0.634495,0.78447 -0.3489722,0.24849 -0.6910812,0.67726 -0.7602432,0.95282 -0.06916,0.27557 -0.236077,0.46074 -0.370922,0.41151 -0.134846,-0.0492 -0.349977,-0.0191 -0.47807,0.067 -0.312441,0.20999 -0.792136,1.12616 -0.829978,1.58518 -0.01679,0.20367 -0.105909,0.44179 -0.198039,0.52916 -0.09213,0.0874 -0.101824,-0.0549 -0.02154,-0.31606 0.193655,-0.63007 -0.35363,-0.44051 -0.830814,0.28777 -0.494876,0.75528 -0.770926,0.42186 -0.436203,-0.52684 0.54053,-1.53203 1.171205,-2.56685 1.564376,-2.56685 0.441366,0 1.110528,-0.67343 1.577433,-1.5875 0.178397,-0.34925 1.0944142,-1.42743 2.0355932,-2.39595 0.941179,-0.96853 1.711235,-1.80615 1.711235,-1.86137 0,-0.0552 -0.166688,-0.0724 -0.370417,-0.0382 -0.552053,0.0927 -0.447439,-0.47225 0.15875,-0.85729 l 0.529167,-0.33611 -0.420386,0.48801 -0.420386,0.48801 0.843719,-0.15412 c 0.842878,-0.15397 2.007885,-0.81747 2.007885,-1.14354 0,-0.0949 0.166688,-0.23114 0.370417,-0.30273 0.203729,-0.0716 0.941917,-0.46883 1.640417,-0.8827399 1.702185,-1.00867 3.321913,-1.74658 4.921249,-2.24201 0.727605,-0.22539 1.322917,-0.50764 1.322917,-0.62722 0,-0.25543 -0.740766,-0.0666 -1.421303,0.3623 -0.555249,0.34995 -0.77179,0.3787 -0.58582,0.0778 0.07399,-0.11972 0.4368,-0.34663 0.806243,-0.50424 l 0.671713,-0.28657 -0.517135,-0.20347 c -0.49824,-0.19604 -0.482772,-0.21634 0.423333,-0.55577 0.517258,-0.19377 1.323325,-0.38407 1.791259,-0.4229 0.467936,-0.0388 1.087061,-0.20154 1.375833,-0.36159 0.62055,-0.34392 7.097569,-0.53636 6.557279,-0.19481 -0.17448,0.1103 -0.55536,0.20346 -0.8464,0.20702 -1.0858,0.0133 -1.14624,0.37531 -0.0821,0.49163 0.56902,0.0622 1.34415,0.17833 1.7225,0.25808 0.45107,0.0951 0.68792,0.0639 0.68792,-0.0907 0,-0.12963 0.0953,-0.23569 0.21167,-0.23569 0.11641,0 0.18785,0.11591 0.15875,0.25758 -0.0489,0.23822 0.86423,0.40574 3.65125,0.66982 0.40746,0.0386 0.88371,0.11933 1.05833,0.17938 0.17463,0.0601 1.27,0.3685 2.43417,0.68544 1.16416,0.31694 2.32495,0.70835 2.57952,0.86979 0.25457,0.16144 0.91599,0.39507 1.46982,0.51919 0.55384,0.12412 1.78891,0.61313 2.7446,1.08669 0.95569,0.4735699 1.85315,0.8225199 1.99436,0.7754499 0.1412,-0.0471 -0.30203,-0.5054699 -0.98495,-1.0186799 -1.62987,-1.22483 -1.79564,-1.38718 -1.0146,-0.99363 0.35773,0.18024 0.77941,0.48316 0.93708,0.67313 0.15767,0.18998 0.57936,0.49641 0.93709,0.68095 0.66748,0.3443399 1.41422,0.9902999 3.49488,3.0232199 0.65532,0.64029 1.56928,1.50237 2.03102,1.91573 0.46173,0.41336 0.96212,0.93723 1.11198,1.16417 0.14986,0.22693 0.21568,0.29354 0.14626,0.14802 -0.0694,-0.14552 -0.0618,-0.36875 0.0169,-0.49606 0.14077,-0.22776 0.63011,0.50501 1.76569,2.64407 0.30272,0.57022 0.71252,1.33222 0.91065,1.69334 0.19814,0.36111 0.36648,0.84706 0.37408,1.0799 0.008,0.23283 0.23503,0.63294 0.50539,0.88914 0.53275,0.50482 1.40789,3.12975 1.40679,4.21958 -4.3e-4,0.36505 0.14288,0.93655 0.31833,1.27 0.18006,0.3422 0.26713,0.84979 0.19991,1.16534 -0.0655,0.30748 0.0299,1.13414 0.21205,1.83703 0.18214,0.70289 0.42678,2.30869 0.54366,3.56844 0.11687,1.25976 0.26974,2.82678 0.33972,3.48228 0.12061,1.12987 -0.3558,4.78411 -0.75527,5.79319 -0.59274,1.49727 -1.70575,5.20628 -1.70575,5.68424 0,0.31527 -0.13686,0.62573 -0.30413,0.68992 -0.16728,0.0642 -0.25187,0.25291 -0.18799,0.41939 0.0639,0.16647 0.0263,0.42052 -0.0834,0.56456 -0.10978,0.14404 -0.41696,0.88101 -0.68264,1.63772 -0.26567,0.75671 -0.66514,1.57501 -0.88771,1.81845 -0.22256,0.24343 -0.47469,0.85279 -0.56027,1.35412 -0.17659,1.03444 -0.38964,1.2002 -1.77012,1.37733 -0.97585,0.12521 -1.71775,0.55944 -3.34673,1.95885 -0.44042,0.37836 -0.86143,0.68792 -0.93557,0.68792 -0.0741,0 -0.97411,0.60725 -1.99993,1.34946 -1.02582,0.7422 -2.0728,1.41537 -2.32662,1.49593 -0.25383,0.0806 -0.4615,0.23084 -0.4615,0.33397 0,0.10312 -0.45244,0.39335 -1.00542,0.64494 -2.78436,1.26684 -3.63916,1.51241 -6.61458,1.90027 -1.68804,0.22004 -3.78354,0.49547 -4.65667,0.61205 -1.76383,0.23552 -2.37441,0.23585 -5.29166,0.003 z M 17.560281,45.107657 c 0.306741,-0.24128 0.557712,-0.51684 0.557712,-0.61235 0,-0.35163 -0.707045,-0.43103 -1.052694,-0.11822 -0.426344,0.38583 -1.303099,0.42214 -1.656639,0.0686 -0.1397,-0.1397 -0.254,-0.56613 -0.254,-0.94762 0,-0.91205 0.737201,-1.45 1.558929,-1.13758 0.306756,0.11663 0.557738,0.30075 0.557738,0.40914 0,0.1084 0.1905,0.14728 0.423333,0.0864 0.566397,-0.14812 0.533389,-0.36737 -0.134379,-0.89263 -0.608516,-0.47866 -1.751459,-0.57713 -2.437456,-0.21 -0.235034,0.12579 -0.566839,0.56258 -0.737343,0.97066 -0.373156,0.89308 -0.09869,2.00019 0.620806,2.50415 0.654105,0.45815 1.892617,0.3997 2.553993,-0.12054 z m 4.59566,-0.18002 c 0.810967,-0.81097 0.837434,-1.84054 0.07074,-2.75171 -0.460957,-0.54782 -0.697793,-0.65124 -1.491289,-0.65124 -1.318211,0 -1.982396,0.67387 -1.982396,2.01132 0,0.77946 0.111047,1.07514 0.560074,1.49129 0.818314,0.75838 2.027208,0.71601 2.842874,-0.0997 z m -2.302281,-0.48195 c -0.452584,-0.45258 -0.308181,-1.60574 0.246596,-1.96925 1.183733,-0.77561 2.498627,0.88712 1.495118,1.89063 -0.393628,0.39363 -1.382088,0.43825 -1.741714,0.0786 z m 7.019637,0.54264 c 0.434177,-0.43418 0.558029,-0.76517 0.558029,-1.49129 0,-1.29578 -0.680019,-1.97235 -1.982396,-1.97235 -0.793496,0 -1.030331,0.10342 -1.491289,0.65124 -0.766696,0.91117 -0.74023,1.94074 0.07074,2.75171 0.836913,0.83691 2.042965,0.86264 2.844919,0.0607 z m -2.447703,-0.82634 c -0.16333,-0.35847 -0.179457,-0.72115 -0.04838,-1.08808 0.428398,-1.19926 2.045146,-0.9596 2.168969,0.32152 0.08757,0.90604 -0.265428,1.30426 -1.156147,1.30426 -0.565054,0 -0.77203,-0.11539 -0.964444,-0.5377 z m 4.951478,0.48478 0.06509,-0.89958 0.635,0.89506 c 0.48696,0.68641 0.774,0.89612 1.23125,0.89959 l 0.59625,0.005 -0.755,-0.92139 c -0.41525,-0.50676 -0.755,-1.04187 -0.755,-1.18914 0,-0.14726 0.30444,-0.6137 0.67653,-1.03653 0.66515,-0.75586 0.66844,-0.76995 0.19571,-0.83851 -0.34206,-0.0496 -0.68746,0.16419 -1.19688,0.74084 l -0.716084,0.81056 -0.0088,-0.79375 c -0.0078,-0.70321 -0.06918,-0.79375 -0.537982,-0.79375 -0.527311,0 -0.529167,0.007 -0.529167,2.01083 0,1.99116 0.0051,2.01084 0.516996,2.01084 0.45691,0 0.524561,-0.10455 0.582083,-0.89959 z m 7.868212,0.46089 c 0.30674,-0.24128 0.55771,-0.51684 0.55771,-0.61235 0,-0.35163 -0.70705,-0.43103 -1.0527,-0.11822 -0.42634,0.38583 -1.3031,0.42214 -1.65664,0.0686 -0.1397,-0.1397 -0.254,-0.56613 -0.254,-0.94762 0,-0.91205 0.73721,-1.45 1.55893,-1.13758 0.30676,0.11663 0.55774,0.30075 0.55774,0.40914 0,0.1084 0.1905,0.14728 0.42333,0.0864 0.5664,-0.14812 0.53339,-0.36737 -0.13437,-0.89263 -0.60852,-0.47866 -1.75146,-0.57713 -2.43746,-0.21 -0.23503,0.12579 -0.56684,0.56258 -0.73734,0.97066 -0.37316,0.89308 -0.0987,2.00019 0.6208,2.50415 0.65411,0.45815 1.89262,0.3997 2.554,-0.12054 z m 3.48183,0.0683 c -0.0424,-0.22341 -0.30054,-0.397 -0.65052,-0.43739 -0.57453,-0.0663 -0.58027,-0.0825 -0.58027,-1.64042 0,-1.43233 -0.038,-1.57344 -0.42333,-1.57344 -0.39363,0 -0.42334,0.14111 -0.42334,2.01083 v 2.01084 h 1.07386 c 0.90836,0 1.06303,-0.0571 1.0036,-0.37042 z m 3.17508,0 c -0.0462,-0.24396 -0.30443,-0.39306 -0.75635,-0.43675 -0.51476,-0.0497 -0.68619,-0.16873 -0.68619,-0.47625 0,-0.31435 0.14804,-0.40992 0.635,-0.40992 0.42334,0 0.635,-0.10583 0.635,-0.3175 0,-0.21166 -0.21166,-0.3175 -0.635,-0.3175 -0.48696,0 -0.635,-0.0956 -0.635,-0.40992 0,-0.30751 0.17143,-0.42649 0.68619,-0.47625 0.45192,-0.0437 0.71014,-0.19279 0.75635,-0.43674 0.0606,-0.31982 -0.10542,-0.37042 -1.21535,-0.37042 h -1.28552 v 2.01083 2.01084 h 1.28552 c 1.10993,0 1.27594,-0.0506 1.21535,-0.37042 z m 3.50948,-1.37638 c 0.33707,-0.96014 0.65682,-1.86477 0.71056,-2.01029 0.058,-0.157 -0.0774,-0.26458 -0.33305,-0.26458 -0.3286,0 -0.5348,0.27802 -0.86932,1.17211 -0.2412,0.64465 -0.43854,1.27965 -0.43854,1.41111 0,0.44949 -0.30703,-0.0677 -0.75554,-1.27279 -0.333,-0.8947 -0.56596,-1.22203 -0.90553,-1.27234 l -0.45719,-0.0677 0.55712,1.54941 c 0.30642,0.85217 0.6378,1.76372 0.73639,2.02566 0.11371,0.30207 0.35536,0.47604 0.66076,0.4757 0.41228,-4.3e-4 0.56958,-0.25149 1.09434,-1.74625 z m 3.89885,1.37638 c -0.0462,-0.24396 -0.30443,-0.39306 -0.75635,-0.43675 -0.51476,-0.0497 -0.68618,-0.16873 -0.68618,-0.47625 0,-0.31435 0.14803,-0.40992 0.635,-0.40992 0.42333,0 0.635,-0.10583 0.635,-0.3175 0,-0.21166 -0.21167,-0.3175 -0.635,-0.3175 -0.48697,0 -0.635,-0.0956 -0.635,-0.40992 0,-0.30751 0.17142,-0.42649 0.68618,-0.47625 0.45192,-0.0437 0.71014,-0.19279 0.75635,-0.43674 0.06,-0.31687 -0.10038,-0.37042 -1.10951,-0.37042 h -1.17969 v 2.01083 2.01084 h 1.17969 c 1.00913,0 1.16954,-0.0536 1.10951,-0.37042 z m 1.73247,-0.47625 c 0,-0.46567 0.0933,-0.84667 0.20736,-0.84667 0.11405,0 0.40174,0.381 0.6393,0.84667 0.33264,0.65201 0.55548,0.84667 0.9693,0.84667 0.57414,0 0.56638,-0.0459 -0.19292,-1.14099 -0.39257,-0.56617 -0.39787,-0.63108 -0.0711,-0.87 0.49751,-0.36378 0.46133,-1.51453 -0.0563,-1.79157 -0.22518,-0.12051 -0.84431,-0.21911 -1.37583,-0.21911 h -0.96642 v 2.01083 c 0,1.86972 0.0297,2.01084 0.42333,2.01084 0.35278,0 0.42334,-0.14112 0.42334,-0.84667 z m 0.0771,-1.79775 c -0.0733,-0.19106 -0.0318,-0.44887 0.0923,-0.57292 0.3225,-0.32249 0.93354,-0.0277 0.8493,0.40968 -0.0938,0.48723 -0.77209,0.60482 -0.94155,0.16324 z m -20.77264,-5.87517 c 0.48291,-0.3754 2.06494,-2.95723 1.93796,-3.16269 -0.22074,-0.35717 -0.47104,-0.12732 -1.4272,1.31061 -0.63968,0.96199 -1.12519,1.48167 -1.38424,1.48167 -0.85438,0 -0.67874,-0.67394 0.60971,-2.33948 1.27991,-1.6545 1.50016,-2.11208 1.00974,-2.09784 -0.35491,0.0103 -2.91041,3.32595 -2.91041,3.77612 0,1.04353 1.33228,1.67852 2.16444,1.03161 z m 6.76181,-0.0857 c 0.21289,-0.19267 0.38708,-0.56315 0.38708,-0.8233 0,-0.28175 -1.09537,-1.89478 -2.7091,-3.9894 -2.46798,-3.20344 -2.70145,-3.58196 -2.62313,-4.25285 0.0744,-0.63755 -0.11308,-1.01525 -1.39652,-2.81288 -1.62906,-2.28174 -2.04993,-2.72762 -2.25754,-2.3917 -0.0737,0.11924 0.59119,1.2405 1.47751,2.4917 1.41258,1.99409 1.59594,2.35782 1.48548,2.94666 -0.11453,0.61051 0.1044,0.97048 2.40133,3.94824 3.10977,4.03153 3.15131,4.09583 2.84423,4.40291 -0.50688,0.50688 -1.10384,-0.13974 -3.43304,-3.71859 -1.74296,-2.67809 -2.52442,-3.70548 -2.8185,-3.70548 -0.74522,0 -1.16691,-0.39688 -2.69328,-2.53477 -0.833225,-1.16705 -1.605886,-2.1219 -1.717028,-2.1219 -0.468014,0 -0.119651,0.75345 1.199644,2.59462 1.546554,2.15833 2.083934,2.68531 2.745504,2.69234 0.33402,0.004 0.95252,0.77305 2.5132,3.12679 2.88995,4.35846 3.00319,4.49792 3.65243,4.49792 0.30505,0 0.72883,-0.15764 0.94173,-0.35031 z m -0.87125,-7.34084 c 1.82677,-0.67393 3.43888,-2.92807 3.46605,-4.84644 0.013,-0.91976 -0.067,-1.11639 -0.67648,-1.66117 -0.77059,-0.68883 -1.21869,-0.75419 -2.24135,-0.32689 -1.97346,0.82457 -3.30599,2.90904 -3.30949,5.17703 -0.003,1.82421 0.48154,1.67967 0.64757,-0.19324 0.17483,-1.9722 0.99664,-3.28874 2.599,-4.16356 1.05522,-0.57611 1.22728,-0.58464 1.83678,-0.0911 0.92577,0.74965 0.42024,3.01489 -1.01106,4.53044 -0.29941,0.31703 -0.99792,0.72707 -1.55225,0.91118 -0.55432,0.18412 -1.11864,0.46824 -1.25404,0.63139 -0.30109,0.36279 -0.0647,0.83784 0.28536,0.57356 0.13516,-0.10202 0.67962,-0.34556 1.20991,-0.5412 z m -5.98661,-2.20427 c -0.16727,-0.63456 -2.54276,-3.86292 -2.842405,-3.86292 -0.581002,0 -0.384554,0.35183 1.979635,3.54542 0.55007,0.74305 1.0206,0.9162 0.86277,0.3175 z m 30.84577,20.90208 c 0.15262,-0.48086 -0.28168,-0.58614 -0.6985,-0.16933 -0.33186,0.33187 -0.33873,-0.0233 -0.016,-0.82612 0.39211,-0.97532 0.53626,-1.38307 0.92019,-2.60288 0.76478,-2.42984 0.94816,-3.25996 0.984,-4.45429 0.0357,-1.18826 0.38743,-2.35948 0.39455,-1.31363 0.002,0.26194 0.0753,0.47625 0.16337,0.47625 0.22234,0 0.68654,-1.55619 0.68654,-2.30155 0,-0.33819 0.18733,-0.83975 0.41629,-1.11458 l 0.41629,-0.4997 0.007,0.58208 c 0.0105,0.86366 0.0129,0.87276 0.33536,1.22904 0.18016,0.19908 0.24717,0.53413 0.16933,0.84667 -0.0709,0.28446 -0.17377,0.92202 -0.22871,1.41679 -0.055,0.49477 -0.19313,0.89959 -0.30707,0.89959 -0.12007,0 -0.14854,0.26696 -0.0677,0.635 0.0778,0.35417 0.0515,0.635 -0.0595,0.635 -0.10945,0 -0.25609,0.48201 -0.32587,1.07113 -0.0698,0.58912 -0.31205,1.47018 -0.53841,1.95792 -0.22635,0.48773 -0.57375,1.34533 -0.77198,1.90578 -0.47226,1.33517 -1.87697,2.88007 -1.47921,1.62683 z m 2.22574,-13.28208 c 0.002,-0.0873 0.0956,-0.30163 0.20843,-0.47625 0.16592,-0.25674 0.2058,-0.22637 0.20843,0.15875 0.002,0.26194 -0.092,0.47625 -0.20843,0.47625 -0.11642,0 -0.21021,-0.0714 -0.20843,-0.15875 z M 7.7605598,17.923847 c 0.0014,-0.3738 0.605102,-1.29924 0.613267,-0.94003 0.0041,0.18147 -0.132345,0.51485 -0.303268,0.74083 -0.170922,0.22598 -0.310422,0.31562 -0.309999,0.1992 z m 1.044101,-1.70724 c 0,-0.43466 1.2831062,-1.92522 2.7038052,-3.14098 0.38917,-0.33303 0.471195,-0.34673 0.471195,-0.0787 0,0.17849 -0.628044,1.00288 -1.395653,1.83197 -1.2415082,1.34094 -1.7793472,1.7604 -1.7793472,1.38769 z m 5.5033322,-5.66128 c 0,-0.0363 0.309563,-0.29265 0.687917,-0.5696299 0.550983,-0.40335 0.624715,-0.42181 0.370417,-0.0927 -0.445679,0.5767499 -1.058334,0.9601699 -1.058334,0.6623499 z M 43.623824,6.3880171 c -0.072,-0.11642 -0.0356,-0.21167 0.0808,-0.21167 0.11642,0 0.27053,0.0953 0.34248,0.21167 0.072,0.11642 0.0356,0.21167 -0.0808,0.21167 -0.11641,0 -0.27053,-0.0953 -0.34248,-0.21167 z m -8.30792,-2.05091 c 0.20373,-0.0532 0.53711,-0.0532 0.74084,0 0.20373,0.0532 0.037,0.0968 -0.37042,0.0968 -0.40746,0 -0.57414,-0.0436 -0.37042,-0.0968 z"
       id="path46" />
  </g>
</svg>
